<?xml version="1.0" encoding="UTF-8"?>
<svg width="1200" height="1200" viewBox="0 0 1200 1200" version="1.1" xmlns="http://www.w3.org/2000/svg">
    <path d="M1015.7,261.4C940.1,226.8 858.4,201.2 772.9,186.1C772.3,186 771.7,186.2 771.4,186.7C762.7,202.4 752.9,223.1 746,238.7C654.1,224.6 562.8,224.6 472.5,238.7C465.6,223 455.5,202.4 446.8,186.7C446.5,186.2 445.9,186 445.3,186.1C359.8,201.2 278.1,226.8 202.5,261.4C201.9,261.6 201.5,262.1 201.3,262.7C84.8,436.2 49.2,605.5 66.8,772.5C66.9,773.2 67.3,773.9 67.9,774.3C167.5,847.9 264.3,892.9 359.5,922.7C360.1,922.9 360.8,922.7 361.2,922.2C379.4,897.2 395.7,870.8 409.6,843C410.1,842.1 409.7,841 408.8,840.7C381.8,830.5 356,817.9 331.2,803.5C330.2,802.9 330.1,801.5 331,800.8C336.2,797 341.4,793.1 346.4,789.1C346.9,788.7 347.6,788.6 348.2,788.8C516.8,865.4 698.4,865.4 864.8,788.8C865.4,788.5 866.1,788.7 866.6,789.1C871.6,793.1 876.8,797 881.9,800.8C882.8,801.5 882.8,802.9 881.8,803.5C857,818.2 831.2,830.5 804.2,840.6C803.3,840.9 802.9,842 803.4,842.9C817.6,870.7 833.9,897.1 851.8,922.1C852.2,922.7 852.9,922.9 853.5,922.7C949,892.9 1045.8,847.9 1145.4,774.3C1146,773.9 1146.4,773.3 1146.5,772.6C1167.5,578.9 1109.8,411.1 1015.9,262.7C1015.7,262.1 1015.3,261.6 1014.7,261.4H1015.7ZM435.7,668.5C387.1,668.5 347.2,624.4 347.2,569.8C347.2,515.2 386.3,471.1 435.7,471.1C485.4,471.1 524.9,515.6 524.1,569.8C524.1,624.4 484.6,668.5 435.7,668.5ZM777.9,668.5C729.3,668.5 689.4,624.4 689.4,569.8C689.4,515.2 728.5,471.1 777.9,471.1C827.6,471.1 867.1,515.6 866.3,569.8C866.3,624.4 827.6,668.5 777.9,668.5Z" fill="#5865F2"/>
</svg> 