<?xml version="1.0" encoding="UTF-8"?>
<svg width="1200" height="1200" viewBox="0 0 1200 1200" version="1.1" xmlns="http://www.w3.org/2000/svg">
    <path d="M1200,600 C1200,268.63 931.37,0 600,0 C268.63,0 0,268.63 0,600 C0,899.95 219.47,1147.71 506.25,1192.81 L506.25,773.44 L353.91,773.44 L353.91,600 L506.25,600 L506.25,467.81 C506.25,317.34 595.62,234.38 731.64,234.38 C797.27,234.38 866.02,246.09 866.02,246.09 L866.02,391.41 L790.55,391.41 C716.13,391.41 692.81,437.52 692.81,484.77 L692.81,600 L858.98,600 L832.42,773.44 L692.81,773.44 L692.81,1192.81 C979.59,1147.71 1200,899.95 1200,600" fill="#1877F2"/>
</svg> 