<?xml version="1.0" encoding="UTF-8"?>
<svg width="1200" height="1200" viewBox="0 0 1200 1200" version="1.1" xmlns="http://www.w3.org/2000/svg">
    <defs>
        <radialGradient id="instagram" cx="30%" cy="107%" r="150%">
            <stop offset="0%" stop-color="#fdf497"/>
            <stop offset="5%" stop-color="#fdf497"/>
            <stop offset="45%" stop-color="#fd5949"/>
            <stop offset="60%" stop-color="#d6249f"/>
            <stop offset="90%" stop-color="#285AEB"/>
        </radialGradient>
    </defs>
    <path d="M600,0 C737.8,0 756.7,0.3 818.1,3.7 C879.5,7.1 917.2,18 950.2,34.2 C984.3,50.8 1012.5,72.7 1040.7,100.9 C1068.9,129.1 1090.8,157.3 1107.4,191.4 C1123.6,224.4 1134.5,262.1 1137.9,323.5 C1141.3,384.9 1141.6,403.8 1141.6,541.6 C1141.6,679.4 1141.3,698.3 1137.9,759.7 C1134.5,821.1 1123.6,858.8 1107.4,891.8 C1090.8,925.9 1068.9,954.1 1040.7,982.3 C1012.5,1010.5 984.3,1032.4 950.2,1049 C917.2,1065.2 879.5,1076.1 818.1,1079.5 C756.7,1082.9 737.8,1083.2 600,1083.2 C462.2,1083.2 443.3,1082.9 381.9,1079.5 C320.5,1076.1 282.8,1065.2 249.8,1049 C215.7,1032.4 187.5,1010.5 159.3,982.3 C131.1,954.1 109.2,925.9 92.6,891.8 C76.4,858.8 65.5,821.1 62.1,759.7 C58.7,698.3 58.4,679.4 58.4,541.6 C58.4,403.8 58.7,384.9 62.1,323.5 C65.5,262.1 76.4,224.4 92.6,191.4 C109.2,157.3 131.1,129.1 159.3,100.9 C187.5,72.7 215.7,50.8 249.8,34.2 C282.8,18 320.5,7.1 381.9,3.7 C443.3,0.3 462.2,0 600,0 Z M600,98.2 C465.2,98.2 447.6,98.5 387.2,101.9 C331.4,105 303.7,115.5 285.5,124.3 C261.3,136 244.4,150 226.6,167.8 C208.8,185.6 194.8,202.5 183.1,226.7 C174.3,244.9 163.8,272.6 160.7,328.4 C157.3,388.8 157,406.4 157,541.2 C157,676 157.3,693.6 160.7,754 C163.8,809.8 174.3,837.5 183.1,855.7 C194.8,879.9 208.8,896.8 226.6,914.6 C244.4,932.4 261.3,946.4 285.5,958.1 C303.7,966.9 331.4,977.4 387.2,980.5 C447.6,983.9 465.2,984.2 600,984.2 C734.8,984.2 752.4,983.9 812.8,980.5 C868.6,977.4 896.3,966.9 914.5,958.1 C938.7,946.4 955.6,932.4 973.4,914.6 C991.2,896.8 1005.2,879.9 1016.9,855.7 C1025.7,837.5 1036.2,809.8 1039.3,754 C1042.7,693.6 1043,676 1043,541.2 C1043,406.4 1042.7,388.8 1039.3,328.4 C1036.2,272.6 1025.7,244.9 1016.9,226.7 C1005.2,202.5 991.2,185.6 973.4,167.8 C955.6,150 938.7,136 914.5,124.3 C896.3,115.5 868.6,105 812.8,101.9 C752.4,98.5 734.8,98.2 600,98.2 Z M600,263.1 C744.2,263.1 861.5,380.4 861.5,524.6 C861.5,668.8 744.2,786.1 600,786.1 C455.8,786.1 338.5,668.8 338.5,524.6 C338.5,380.4 455.8,263.1 600,263.1 Z M600,688 C690.8,688 764.6,614.2 764.6,523.4 C764.6,432.6 690.8,358.8 600,358.8 C509.2,358.8 435.4,432.6 435.4,523.4 C435.4,614.2 509.2,688 600,688 Z M861.5,262 C861.5,299.1 831.6,329 794.5,329 C757.4,329 727.5,299.1 727.5,262 C727.5,224.9 757.4,195 794.5,195 C831.6,195 861.5,224.9 861.5,262 Z" fill="url(#instagram)"/>
</svg> 